# xmcd
#
# Track frame offsets:
#	180
#	16056
#	29137
#	44993
#	57539
#	71003
#	89743
#	102297
#	115433
#	133573
#	154659
#	167145
#	180067
#	197303
#	214696
#	234173
#	251982
#	258700
#	280313
#	295327
#
# Disc length: 4164
#
# Revision: 1
# Processed by: cddbd v1.5.2PL0 Copyright (c) Steve Scherf et al.
# Submitted via: OrangeCD 4.1
# Normalized: r0:DSETVAR1,TDELIM( - )
#
DISCID=30104214
DTITLE=Various Artist - Nashwest New Country
DYEAR=1995
DGENRE=Traditional Country
TTITLE0=Mary Chapin Carpenter - I Feel Lucky
TTITLE1=John Anderson - Straight Tequila Night
TTITLE2=George Strait - I Cross My Heart
TTITLE3=Lee Kernaghan - Boys From The Bush
TTITLE4=Brooks and Dunn - Brand New Man
TTITLE5=Tanya Tucker - Two Sparrows In A Hurricane
TTITLE6=Joe Diffie - If The Devil Danced (In Empty Pockets)
TTITLE7=Tim McGraw - Welcome To The Club
TTITLE8=James Blundell and James Reyne - Way Out West
TTITLE9=Clint Black - We Tell Ourselves
TTITLE10=Faith Hill - Wild One
TTITLE11=Alan Jackson - Don't Rock The Jukebox
TTITLE12=Shanley Del - Red Roses
TTITLE13=The Mavericks - What A Crying Shame
TTITLE14=Reba McEntire and Linda Davis - Does He Love You
TTITLE15=Wynonna - No One Else On Earth
TTITLE16=Jane Saunders - Anything (For my Darling)
TTITLE17=Dwight Yoakam - Fast As You
TTITLE18=John Michael Montgomery - Kick It Up
TTITLE19=Confederate Railroad - Daddy Never Was The Cadillac Kind
EXTD=
EXTT0=
EXTT1=
EXTT2=
EXTT3=
EXTT4=
EXTT5=
EXTT6=
EXTT7=
EXTT8=
EXTT9=
EXTT10=
EXTT11=
EXTT12=
EXTT13=
EXTT14=
EXTT15=
EXTT16=
EXTT17=
EXTT18=
EXTT19=
PLAYORDER=
